{
  "title": "Merlin Season 5 HDTV XviD - DiGrX",
  "uid": 9150843,
  "size": 5439852567,
  "categoryP": "video",
  "categoryS": "tv_shows",
  "magnet": "?xt=urn:btih:9cfe04496768b34109d90c411e6d783d5f535f9d&amp;dn=Merlin+Season+5+HDTV+XviD+-+DiGrX&amp;tr=udp%3A%2F%2Ftracker.openbittorrent.com%3A80&amp;tr=udp%3A%2F%2Fopen.demonii.com%3A1337&amp;tr=udp%3A%2F%2Ftracker.coppersurfer.tk%3A6969&amp;tr=udp%3A%2F%2Fexodus.desync.com%3A6969",
  "seeders": 38,
  "leechers": 16,
  "uploader": "dimigeor",
  "files": 14,
  "time": 1383689016,
  "description": "Merlin Season 5 HDTV XviD - DiGrX\n\nAll episodes in XviD from HDTV\n\nCodec ID, Format: XVID, MPEG-4\nAspect ratio, Dimension: 16:9, 720x404\nAudio: MP3, 2 Channels\n\n\n-----------------------------------------------------------------------------------\n\n\nEpisode 1 example:\n\nGeneral\nComplete name                            : Merlin 5x01 - Arthur's Bane (Part 1) HDTV.avi\nFormat                                   : AVI\nFormat/Info                              : Audio Video Interleave\nFile size                                : 408 MiB\nDuration                                 : 42mn 38s\nOverall bit rate mode                    : Variable\nOverall bit rate                         : 1 337 Kbps\nWriting application                      : MEncoder r33883\nWriting library                          : MPlayer\n\nVideo\nID                                       : 0\nFormat                                   : MPEG-4 Visual\nFormat profile                           : Simple@L3\nFormat settings, BVOP                    : No\nFormat settings, QPel                    : No\nFormat settings, GMC                     : No warppoints\nFormat settings, Matrix                  : Default (H.263)\nCodec ID                                 : XVID\nCodec ID/Hint                            : XviD\nDuration                                 : 42mn 38s\nBit rate                                 : 1 200 Kbps\nWidth                                    : 720 pixels\nHeight                                   : 404 pixels\nDisplay aspect ratio                     : 16:9\nFrame rate                               : 25.000 fps\nColor space                              : YUV\nChroma subsampling                       : 4:2:0\nBit depth                                : 8 bits\nScan type                                : Progressive\nCompression mode                         : Lossy\nBits/(Pixel*Frame)                       : 0.165\nStream size                              : 366 MiB (90%)\nWriting library                          : XviD 63\n\nAudio\nID                                       : 1\nFormat                                   : MPEG Audio\nFormat version                           : Version 1\nFormat profile                           : Layer 3\nMode                                     : Joint stereo\nMode extension                           : MS Stereo\nCodec ID                                 : 55\nCodec ID/Hint                            : MP3\nDuration                                 : 42mn 38s\nBit rate mode                            : Variable\nBit rate                                 : 124 Kbps\nChannel(s)                               : 2 channels\nSampling rate                            : 48.0 KHz\nCompression mode                         : Lossy\nStream size                              : 37.9 MiB (9%)\nAlignment                                : Aligned on interleaves\nInterleave, duration                     : 24 ms (0.60 video frame)\nInterleave, preload duration             : 498 ms\n\n",
  "parsed": {
    "xt": "urn:btih:9cfe04496768b34109d90c411e6d783d5f535f9d",
    "dn": "Merlin Season 5 HDTV XviD - DiGrX",
    "tr": [
      "udp://exodus.desync.com:6969",
      "udp://open.demonii.com:1337",
      "udp://tracker.coppersurfer.tk:6969",
      "udp://tracker.openbittorrent.com:80"
    ],
    "infoHash": "9cfe04496768b34109d90c411e6d783d5f535f9d",
    "infoHashBuffer": {
      "type": "Buffer",
      "data": [
        156,
        254,
        4,
        73,
        103,
        104,
        179,
        65,
        9,
        217,
        12,
        65,
        30,
        109,
        120,
        61,
        95,
        83,
        95,
        157
      ]
    },
    "name": "Merlin Season 5 HDTV XviD - DiGrX",
    "announce": [
      "udp://exodus.desync.com:6969",
      "udp://open.demonii.com:1337",
      "udp://tracker.coppersurfer.tk:6969",
      "udp://tracker.openbittorrent.com:80"
    ],
    "urlList": []
  },
  "previous": 0,
  "peers": 67,
  "last_updated": "2016-12-27T08:19:28.549Z"
}